<svg version="1.1" xmlns="http://www.w3.org/2000/svg" viewBox="-231.4239990234375 -1502.0800659179688 4604.672265624999 2280.1921142578126"><desc>Created with Snap</desc><defs></defs><g><rect x="-231.4239990234375" y="-1502.0800659179688" width="4604.672265624999" height="2280.1921142578126" fill="#000000" style=""></rect><g transform="matrix(52.056,0,0,52.056,2400.2562,-1194.8801)"><g display="none"><rect x="-289.302" y="-60.667" display="inline" fill="#e0aaff" width="473.333" height="236" style=""></rect></g><g display="none"><g display="inline"><g><circle fill="#e0aaff" cx="16" cy="16" r="16" style=""></circle></g></g><g display="inline"><g><rect x="8.668" y="8.668" transform="matrix(0.7071 -0.7071 0.7071 0.7071 -6.6274 16)" fill="#e0aaff" width="14.664" height="14.664" style=""></rect></g><g><rect x="12.552" y="12.552" transform="matrix(0.7071 -0.7071 0.7071 0.7071 -6.6274 16)" fill="#e0aaff" width="6.896" height="6.896" style=""></rect></g></g></g><g><g><g><path d="M16,1c8.271,0,15,6.729,15,15s-6.729,15-15,15S1,24.271,1,16S7.729,1,16,1 M16,0C7.163,0,0,7.163,0,16s7.163,16,16,16     s16-7.163,16-16S24.837,0,16,0L16,0z" fill="#e0aaff" style=""></path></g></g><g><g><path d="M16,7.045L24.955,16L16,24.955L7.045,16L16,7.045 M16,5.631L5.631,16L16,26.369L26.369,16L16,5.631L16,5.631z" fill="#e0aaff" style=""></path></g><g><path d="M16,12.538L19.462,16L16,19.462L12.538,16L16,12.538 M16,11.124L11.124,16L16,20.876L20.876,16L16,11.124L16,11.124z" fill="#e0aaff" style=""></path></g></g></g><g display="none"><g display="inline"><path fill="#e0aaff" d="M16,31.5C7.453,31.5,0.5,24.547,0.5,16S7.453,0.5,16,0.5S31.5,7.453,31.5,16S24.547,31.5,16,31.5z" style=""></path><g><path d="M16,1c8.271,0,15,6.729,15,15s-6.729,15-15,15S1,24.271,1,16S7.729,1,16,1 M16,0C7.163,0,0,7.163,0,16s7.163,16,16,16     s16-7.163,16-16S24.837,0,16,0L16,0z" fill="#e0aaff" style=""></path></g></g><g display="inline"><rect x="9.168" y="9.168" transform="matrix(0.7071 -0.7071 0.7071 0.7071 -6.6274 16)" fill="#e0aaff" width="13.664" height="13.664" style=""></rect><g><path d="M16,7.045L24.955,16L16,24.955L7.045,16L16,7.045 M16,5.631L5.631,16L16,26.369L26.369,16L16,5.631L16,5.631z" fill="#e0aaff" style=""></path></g></g><g display="inline"><rect x="13.052" y="13.052" transform="matrix(0.7071 -0.7071 0.7071 0.7071 -6.6274 16)" fill="#e0aaff" width="5.896" height="5.896" style=""></rect><g><path fill="#e0aaff" d="M16,12.538L19.462,16L16,19.462L12.538,16L16,12.538 M16,11.124L11.124,16L16,20.876L20.876,16L16,11.124     L16,11.124z" style=""></path></g></g></g><g display="none"><circle display="inline" fill="#e0aaff" cx="16" cy="16" r="16" style=""></circle><rect x="8.668" y="8.668" transform="matrix(0.7071 -0.7071 0.7071 0.7071 -6.6274 16)" display="inline" fill="#e0aaff" width="14.664" height="14.664" style=""></rect><rect x="12.552" y="12.552" transform="matrix(0.7071 -0.7071 0.7071 0.7071 -6.6274 16)" display="inline" fill="#e0aaff" width="6.896" height="6.896" style=""></rect></g><desc>Created with Snap</desc><defs></defs></g><g><g transform="matrix(1.024,0,0,-1.024,0,0)"><path d="M332 0L74 0L74 710L332 710Q419 710 484 682Q550 654 594 606Q638 558 660 493Q682 429 682 356Q682 275 657 209Q633 144 587 97Q541 51 476 25Q412 0 332 0ZM543 356Q543 407 529 450Q515 493 488 524Q461 555 421 572Q382 589 332 589L212 589L212 121L332 121Q383 121 422 139Q462 157 488 188Q515 220 529 263Q543 306 543 356ZM1250 710L1387 710L1387 0L1250 0L1250 303L928 303L928 0L790 0L790 710L928 710L928 423L1250 423L1250 710ZM2019 636L1958 524Q1951 531 1932 543Q1914 555 1887 566Q1861 578 1830 586Q1799 594 1767 594Q1710 594 1682 573Q1654 552 1654 514Q1654 492 1664 477Q1675 463 1695 452Q1715 441 1745 432Q1776 423 1816 413Q1868 399 1910 383Q1953 367 1982 343Q2012 319 2028 285Q2044 252 2044 203Q2044 146 2022 105Q2001 65 1964 40Q1928 15 1880 3Q1833 -8 1781 -8Q1701 -8 1623 16Q1545 40 1483 84L1544 203Q1553 194 1576 179Q1600 165 1632 150Q1664 136 1703 126Q1742 116 1783 116Q1897 116 1897 189Q1897 212 1884 228Q1871 244 1847 256Q1823 268 1789 278Q1755 288 1713 300Q1662 314 1624 330Q1587 347 1562 369Q1537 392 1524 421Q1512 451 1512 492Q1512 546 1532 588Q1552 630 1587 658Q1623 686 1670 700Q1717 715 1771 715Q1846 715 1909 691Q1972 668 2019 636Z" fill="#ffffff" style=""></path></g></g></g></svg>