<svg version="1.1" xmlns="http://www.w3.org/2000/svg" viewBox="-1435.4659144353545 -4675.107724847731 7445.140261944135 7545.927512139791"><desc>Created with Snap</desc><defs></defs><g><g transform="matrix(17.5644,0,0,17.5644,-1225.7732,-4415.0214)">
<g id="gSkv1wjeegoz">
	<g>
		<g>
			<g>
				<path d="M394.35947,201.70563c-1.02484,40.03262-14.36957,79.1557-38.30353,111.29541
					c-22.98865,30.87024-55.09421,54.61053-91.40369,67.40912c-38.09433,13.4277-80.22023,14.55121-119.00087,3.27557
					c-37.12295-10.79367-70.57287-32.86734-95.24805-62.61133C25.38264,290.91394,9.88069,253.392,6.43797,214.34755
					c-3.55445-40.31158,7.97381-81.86205,29.65278-115.82537c20.75089-32.50934,51.17118-58.51607,86.54323-73.89827
					C159.49695,8.59337,201.11905,4.49347,240.4381,12.7976c38.12755,8.05249,73.35225,27.80426,100.24336,55.98933
					c26.89423,28.18832,44.95993,64.29681,51.21994,102.76215c1.63016,10.01682,2.66824,20.29828,2.45099,30.45525
					c-0.02887,1.35051-0.02158,2.70317-0.01062,4.05388c0.00223,0.2735,0.01791,2.12119,0.04053,1.06296
					c0.42706-19.9673-1.16046-39.76802-6.2027-59.1438c-5.04739-19.39552-13.13757-37.97497-23.87042-54.89912
					c-21.23846-33.48996-52.69785-60.1273-89.29248-75.43089C236.89044,1.70323,193.83626-1.60377,153.70093,8.22285
					c-38.68525,9.47159-73.96521,31.07151-100.14757,61.06426C26.99277,99.71315,10.40321,138.17885,6.57031,178.38963
					c-3.79564,39.8199,2.91581,80.28514,21.77678,115.73189c18.54498,34.85291,47.74068,63.68491,82.8444,81.75653
					c36.80142,18.94559,79.42824,25.57199,120.27161,18.93204c39.36627-6.39981,76.25104-25.18701,104.71246-53.1062
					c28.71466-28.16757,48.28406-65.08585,55.27084-104.71338c1.72244-9.76938,2.67499-19.65547,2.9288-29.57066
					C394.42081,205.6396,394.32358,203.10771,394.35947,201.70563z" fill="#210070" style=""></path>
			</g>
			<g>
				<path d="M384.16437,200.95979c-0.96948,37.67242-13.51837,74.48354-36.03699,104.73305
					c-21.60678,29.02463-51.78247,51.36957-85.91025,63.42532c-35.70105,12.61154-75.16084,13.75424-111.55208,3.31155
					c-35.07212-10.06412-66.70206-30.8139-90.04433-58.84158c-23.57951-28.31256-38.23566-63.55717-41.5681-100.25949
					c-3.44505-37.94264,7.43247-77.10228,27.82195-109.0798c19.50157-30.58497,48.08769-55.05418,81.33714-69.56021
					c34.64224-15.11367,73.79033-19.02391,110.77145-11.27026c35.87495,7.52172,69.03416,26.02512,94.38576,52.48471
					c25.34052,26.44804,42.41953,60.36095,48.39987,96.51042c1.56839,9.48041,2.5929,19.22691,2.38849,28.84497
					c-0.02872,1.35051-0.02161,2.70317-0.01062,4.05388c0.0022,0.2735,0.01804,2.1212,0.04053,1.06296
					c0.3988-18.7643-1.03699-37.36839-5.73373-55.58963c-4.71414-18.28885-12.30157-35.81488-22.38492-51.78335
					C336.125,67.41871,306.52921,42.26576,272.0787,27.80338c-35.89688-15.06956-76.44377-18.24041-114.26489-9.02209
					c-36.45747,8.88595-69.70293,29.21078-94.38911,57.45163C38.38953,104.87299,22.7417,141.1198,19.13585,178.99318
					c-3.56545,37.44904,2.62349,75.50336,20.28055,108.89131c17.38305,32.86981,44.8184,60.08994,77.84254,77.18311
					c34.63775,17.92841,74.77824,24.23904,113.27341,18.05304c37.21521-5.98032,72.10785-23.73868,98.97885-50.15134
					c26.93942-26.47995,45.29636-61.12494,51.8902-98.33336c1.6369-9.23688,2.53745-18.58603,2.77872-27.96193
					C384.22592,204.89378,384.1283,202.36186,384.16437,200.95979z" fill="#210070" style=""></path>
			</g>
			<g>
				<path d="M378.12955,191.33397c-0.90213,34.82123-12.46313,68.84239-33.23041,96.83885
					c-20.05997,27.04294-48.12695,47.84525-79.88693,59.05234c-32.96756,11.63321-69.41772,12.71161-103.03377,3.12222
					c-32.53439-9.28085-61.88795-28.46027-83.57378-54.41476c-21.90107-26.21207-35.53071-58.8539-38.68074-92.87173
					c-3.24719-35.06709,6.89833-71.32854,25.72519-100.88348c18.06519-28.35925,44.55944-51.06163,75.37902-64.51524
					c32.12216-14.02223,68.38997-17.64727,102.68657-10.47926c33.12975,6.92413,63.7787,23.98623,87.24452,48.35861
					c23.54791,24.45763,39.4556,55.85356,45.08145,89.34676c1.47507,8.78174,2.46973,17.83081,2.28183,26.74438
					c-0.02847,1.35052-0.02161,2.70316-0.01065,4.05388c0.00223,0.27348,0.01825,2.1212,0.04056,1.06296
					c0.36649-17.38512-0.90256-34.61259-5.20755-51.50851c-4.30206-16.88425-11.25226-33.07607-20.49515-47.84441
					c-18.41162-29.41833-45.83148-52.87283-77.80072-66.39907c-33.30731-14.09239-70.98164-17.10499-106.12466-8.58576
					c-33.88019,8.2131-64.7917,27.08252-87.71803,53.32784c-23.16263,26.51585-37.65555,60.05003-41.01781,95.10304
					c-3.32995,34.71625,2.26603,70.01709,18.54348,101.02734c16.05161,30.57996,41.47656,55.92804,72.12071,71.86111
					c32.03235,16.65488,69.18037,22.58563,104.82953,16.94745c34.60011-5.47226,67.04689-21.9054,92.05138-46.42136
					c25.05826-24.56866,42.12735-56.76178,48.24323-91.32921c1.5127-8.54979,2.34369-17.20183,2.56851-25.87978
					C378.19144,195.26797,378.09323,192.73601,378.12955,191.33397z" fill="#210070" style=""></path>
			</g>
		</g>
		<circle cx="200" cy="200" r="164.01196" fill="#210070" style=""></circle>
	</g>
</g>


<desc>Created with Snap</desc><defs></defs></g><g><g transform="matrix(1.024,0,0,-1.024,0,0)"><path d="M333 459L338 485Q334 539 265 539Q225 539 195 510Q166 482 166 450Q166 419 192 395Q219 372 256 353Q294 335 331 313Q369 292 395 258Q422 224 422 181Q422 92 352 41Q282 -10 201 -10Q120 -10 66 19Q12 49 12 109Q12 141 34 167Q56 193 97 193Q113 193 126 184Q139 175 142 160Q142 145 124 145Q90 145 90 116Q91 83 121 56Q152 29 207 29Q263 29 302 67Q342 105 342 159Q342 195 315 224Q288 253 250 273Q212 294 173 315Q135 336 108 366Q81 396 81 434Q81 501 138 541Q196 581 269 581Q318 581 358 561Q398 541 399 500Q399 476 387 460Q375 444 354 444Q334 444 333 459ZM601 -5Q545 -5 512 37Q479 80 479 134Q479 243 525 299Q571 355 644 355Q678 355 700 336Q722 318 722 286Q722 226 671 185Q621 145 548 143Q552 104 574 75Q597 47 627 47Q657 47 681 61Q705 75 725 101Q767 156 797 226Q805 244 809 252Q814 260 819 260Q825 260 825 252Q825 202 764 102Q698 -5 601 -5ZM548 167Q607 177 634 205Q662 233 662 278Q662 323 633 323Q598 323 574 274Q550 226 548 167ZM845 -5Q823 -5 804 0Q786 6 782 11Q772 23 772 135Q772 248 797 441Q818 600 895 600Q913 600 921 580Q929 561 929 543Q929 413 850 252Q847 169 847 107Q847 46 858 46Q875 47 905 88Q935 130 964 195Q994 260 1000 260Q1007 260 1007 252Q1007 224 978 163Q899 -5 845 -5ZM904 534Q904 566 896 566Q866 566 852 317Q904 454 904 534ZM1020 -5Q998 -5 979 0Q961 6 957 11Q947 23 947 135Q947 248 972 441Q993 600 1070 600Q1088 600 1096 580Q1104 561 1104 543Q1104 413 1025 252Q1022 169 1022 107Q1022 46 1033 46Q1050 47 1080 88Q1110 130 1139 195Q1169 260 1175 260Q1182 260 1182 252Q1182 224 1153 163Q1074 -5 1020 -5ZM1079 534Q1079 566 1071 566Q1041 566 1027 317Q1079 454 1079 534ZM1654 459L1659 485Q1655 539 1586 539Q1546 539 1516 510Q1487 482 1487 450Q1487 419 1513 395Q1540 372 1577 353Q1615 335 1652 313Q1690 292 1716 258Q1743 224 1743 181Q1743 92 1673 41Q1603 -10 1522 -10Q1441 -10 1387 19Q1333 49 1333 109Q1333 141 1355 167Q1377 193 1418 193Q1434 193 1447 184Q1460 175 1463 160Q1463 145 1445 145Q1411 145 1411 116Q1412 83 1442 56Q1473 29 1528 29Q1584 29 1623 67Q1663 105 1663 159Q1663 195 1636 224Q1609 253 1571 273Q1533 294 1494 315Q1456 336 1429 366Q1402 396 1402 434Q1402 501 1459 541Q1517 581 1590 581Q1639 581 1679 561Q1719 541 1720 500Q1720 476 1708 460Q1696 444 1675 444Q1655 444 1654 459ZM2113 217Q2153 230 2168 239Q2184 249 2192 254L2204 261Q2209 264 2212 264Q2220 264 2220 255Q2220 246 2189 223Q2158 201 2112 183Q2105 99 2059 47Q2013 -5 1928 -5Q1866 -5 1833 44Q1800 94 1800 160Q1800 227 1839 286Q1879 345 1941 345Q1969 365 2007 365Q2046 365 2079 324Q2112 283 2113 217ZM2048 166L2012 164Q1966 164 1934 191Q1902 219 1902 252Q1902 285 1913 309Q1870 275 1870 175Q1870 127 1890 83Q1910 40 1953 40Q1996 40 2020 76Q2044 113 2048 166ZM1986 332Q1970 332 1961 317Q1952 303 1952 286Q1952 249 1977 226Q2003 203 2037 203L2049 203Q2047 252 2032 292Q2018 332 1986 332ZM2247 54L2248 23Q2248 -5 2232 -5Q2208 -5 2186 1Q2164 8 2164 19Q2164 31 2169 98Q2175 166 2175 200L2175 259Q2175 307 2185 317Q2195 327 2220 346Q2246 365 2257 365Q2269 365 2272 361Q2275 357 2275 346Q2275 293 2255 246Q2250 189 2250 167Q2303 266 2324 297Q2361 355 2391 355Q2410 355 2426 340Q2443 325 2443 303Q2443 281 2442 261Q2442 242 2441 231Q2440 220 2440 217Q2444 225 2474 262Q2504 299 2514 310Q2525 321 2537 332Q2560 355 2578 355Q2597 355 2613 341Q2630 327 2630 306Q2630 262 2620 176Q2611 91 2611 68Q2611 46 2617 46Q2634 47 2664 88Q2694 130 2723 195Q2753 260 2759 260Q2766 260 2766 252Q2766 224 2737 163Q2658 -5 2604 -5Q2570 -5 2550 11Q2543 18 2543 47Q2543 77 2548 143Q2554 210 2554 243Q2554 276 2543 276Q2530 276 2486 232Q2443 188 2440 170Q2434 136 2434 23Q2434 -5 2419 -5Q2396 -5 2375 1Q2355 8 2355 19Q2355 31 2361 118Q2367 205 2367 240Q2367 276 2355 276Q2344 276 2300 207Q2256 139 2251 112Q2247 85 2247 54ZM2930 163Q2851 -5 2796 -5Q2742 -5 2732 8Q2723 21 2723 94Q2723 167 2737 305Q2687 315 2684 346Q2684 362 2705 362Q2726 362 2742 354Q2751 426 2763 500Q2766 519 2782 536Q2798 553 2813 553Q2826 553 2826 512Q2826 493 2812 337Q2839 342 2871 357Q2904 372 2910 372Q2928 372 2928 361Q2929 351 2891 333Q2853 316 2809 307Q2797 161 2797 86Q2797 46 2809 46Q2827 47 2857 88Q2887 129 2916 194Q2946 260 2952 260Q2959 260 2959 252Q2959 224 2930 163ZM2990 54L2991 23Q2991 -5 2975 -5Q2951 -5 2929 1Q2907 8 2907 19Q2907 31 2912 98Q2918 166 2918 200L2918 258Q2918 514 3009 584Q3030 600 3052 600Q3062 600 3072 578Q3082 556 3082 521Q3082 435 3053 360Q3024 285 2994 245Q2993 220 2993 167Q2997 173 3035 235Q3073 297 3099 326Q3126 355 3147 355Q3168 355 3184 341Q3201 327 3201 306Q3201 262 3191 176Q3182 91 3182 68Q3182 46 3188 46Q3205 47 3235 88Q3265 130 3294 195Q3324 260 3330 260Q3337 260 3337 252Q3337 224 3308 163Q3229 -5 3175 -5Q3136 -5 3116 11Q3109 18 3109 47Q3109 77 3114 143Q3120 210 3120 243Q3120 276 3108 276Q3097 276 3048 207Q2999 139 2996 120Q2990 85 2990 54ZM3055 499Q3055 541 3044 541Q3026 541 3009 430Q3000 371 2996 293Q3055 416 3055 499ZM3315 489Q3315 507 3334 520Q3353 533 3368 533Q3395 533 3395 502Q3395 471 3379 448Q3363 426 3334 426Q3315 426 3315 489ZM3344 -5Q3305 -5 3285 11Q3278 18 3278 61Q3278 104 3284 204Q3291 305 3296 313Q3301 321 3327 343Q3353 365 3367 365Q3382 365 3382 327Q3382 317 3376 288Q3371 259 3364 246Q3351 213 3351 73Q3351 46 3357 46Q3374 47 3404 88Q3434 130 3463 195Q3493 260 3499 260Q3506 260 3506 252Q3506 224 3477 163Q3398 -5 3344 -5ZM3531 54L3532 23Q3532 -5 3516 -5Q3492 -5 3470 1Q3448 8 3448 19Q3448 31 3453 98Q3459 166 3459 200L3459 259Q3459 307 3469 317Q3479 327 3504 346Q3530 365 3541 365Q3553 365 3556 361Q3559 357 3559 346Q3559 293 3539 246Q3534 189 3534 167Q3538 173 3576 235Q3614 297 3640 326Q3667 355 3688 355Q3709 355 3725 341Q3742 327 3742 306Q3742 262 3732 176Q3723 91 3723 68Q3723 46 3729 46Q3746 47 3776 88Q3806 130 3835 195Q3865 260 3871 260Q3878 260 3878 252Q3878 224 3849 163Q3770 -5 3716 -5Q3677 -5 3657 11Q3650 18 3650 47Q3650 77 3655 143Q3661 210 3661 243Q3661 276 3649 276Q3638 276 3589 207Q3540 139 3537 120Q3531 85 3531 54ZM4053 153Q4022 71 3995 33Q3969 -5 3926 -5Q3883 -5 3853 32Q3824 69 3824 150Q3824 231 3869 293Q3915 355 3989 355Q4004 355 4025 342Q4046 330 4062 312Q4065 322 4091 343Q4117 365 4131 365Q4146 365 4146 322Q4146 279 4128 246Q4118 179 4117 122Q4215 246 4221 253Q4228 260 4233 260Q4243 260 4243 250Q4243 244 4239 237Q4207 190 4113 72Q4107 -47 4105 -90Q4100 -217 4069 -269Q4039 -320 3961 -320Q3927 -320 3897 -300Q3868 -279 3868 -229Q3868 -178 3906 -125Q3945 -72 4047 38L4053 153ZM3983 319Q3955 319 3923 275Q3892 232 3892 175Q3892 119 3908 83Q3925 48 3950 48Q3975 48 3998 89Q4021 130 4057 230Q4059 264 4059 273Q4051 288 4026 303Q4001 319 3983 319ZM4039 -107L4044 -9Q3930 -132 3930 -206Q3930 -240 3942 -262Q3954 -284 3975 -284Q4007 -284 4020 -249Q4033 -214 4039 -107ZM4344 306L4346 321Q4346 339 4325 339Q4305 339 4286 312Q4267 286 4267 269Q4267 252 4269 242Q4271 232 4273 225Q4276 219 4282 210Q4288 201 4291 197L4302 183Q4309 173 4312 170Q4364 213 4436 266Q4440 269 4445 269Q4455 269 4455 258Q4455 247 4446 241Q4382 200 4325 152Q4347 120 4347 82Q4347 44 4318 17Q4289 -10 4244 -10Q4199 -10 4199 33Q4199 64 4265 128Q4260 134 4247 147Q4234 161 4227 169Q4221 177 4212 190Q4196 215 4196 244Q4196 303 4234 339Q4272 376 4315 376Q4342 376 4357 361Q4372 347 4372 332Q4372 298 4356 298Q4344 298 4344 306ZM4280 109Q4240 69 4240 44Q4240 20 4265 20Q4280 20 4290 32Q4312 62 4280 109Z" fill="#7adac0" style=""></path></g></g><g transform="matrix(2,0,0,2,1352.1922,-942.08)"><g transform="matrix(1.024,0,0,-1.024,0,0)"><path d="M333 459L338 485Q334 539 265 539Q225 539 195 510Q166 482 166 450Q166 419 192 395Q219 372 256 353Q294 335 331 313Q369 292 395 258Q422 224 422 181Q422 92 352 41Q282 -10 201 -10Q120 -10 66 19Q12 49 12 109Q12 141 34 167Q56 193 97 193Q113 193 126 184Q139 175 142 160Q142 145 124 145Q90 145 90 116Q91 83 121 56Q152 29 207 29Q263 29 302 67Q342 105 342 159Q342 195 315 224Q288 253 250 273Q212 294 173 315Q135 336 108 366Q81 396 81 434Q81 501 138 541Q196 581 269 581Q318 581 358 561Q398 541 399 500Q399 476 387 460Q375 444 354 444Q334 444 333 459ZM812 459L817 485Q813 539 744 539Q704 539 674 510Q645 482 645 450Q645 419 671 395Q698 372 735 353Q773 335 810 313Q848 292 874 258Q901 224 901 181Q901 92 831 41Q761 -10 680 -10Q599 -10 545 19Q491 49 491 109Q491 141 513 167Q535 193 576 193Q592 193 605 184Q618 175 621 160Q621 145 603 145Q569 145 569 116Q570 83 600 56Q631 29 686 29Q742 29 781 67Q821 105 821 159Q821 195 794 224Q767 253 729 273Q691 294 652 315Q614 336 587 366Q560 396 560 434Q560 501 617 541Q675 581 748 581Q797 581 837 561Q877 541 878 500Q878 476 866 460Q854 444 833 444Q813 444 812 459Z" fill="#7adac0" style=""></path></g></g></g></svg>